<svg id="visual" viewBox="0 0 900 600" width="900" height="600" xmlns="http://www.w3.org/2000/svg" xmlns:xlink="http://www.w3.org/1999/xlink" version="1.1"><rect x="0" y="0" width="900" height="600" fill="#7978E9"></rect><defs><linearGradient id="grad1_0" x1="33.3%" y1="0%" x2="100%" y2="100%"><stop offset="20%" stop-color="#7978e9" stop-opacity="1"></stop><stop offset="80%" stop-color="#7978e9" stop-opacity="1"></stop></linearGradient></defs><defs><linearGradient id="grad2_0" x1="0%" y1="0%" x2="66.7%" y2="100%"><stop offset="20%" stop-color="#7978e9" stop-opacity="1"></stop><stop offset="80%" stop-color="#7978e9" stop-opacity="1"></stop></linearGradient></defs><g transform="translate(900, 0)"><path d="M0 351.5C-49.1 323 -98.1 294.5 -155 268.5C-211.9 242.4 -276.6 218.8 -302.2 174.5C-327.9 130.2 -314.4 65.1 -301 0L0 0Z" fill="#98BDFF"></path></g><g transform="translate(0, 600)"><path d="M0 -319C43.3 -287 86.7 -255.1 133.5 -231.2C180.3 -207.4 230.7 -191.7 267.6 -154.5C304.5 -117.3 328 -58.7 351.5 0L0 0Z" fill="#98BDFF"></path></g></svg>